<svg width="25" height="25" viewBox="0 0 25 25" fill="none" xmlns="http://www.w3.org/2000/svg">
<path d="M12.1928 0.0417809C18.8822 0.0648492 24.2834 5.50343 24.2604 12.1928C24.2373 18.8823 18.7987 24.2835 12.1093 24.2604C5.41989 24.2373 0.0186903 18.7987 0.0417586 12.1093C0.0648269 5.41991 5.50341 0.0187126 12.1928 0.0417809ZM6.47962 14.28L12.1437 14.2995L12.1317 17.7614C12.1299 18.2839 12.7638 18.5497 13.1313 18.1799L18.7316 12.5888C18.9619 12.3601 18.9632 11.9939 18.7345 11.7636L13.1728 6.13406C12.803 5.76169 12.1722 6.02319 12.1704 6.54565L12.1585 10.0027L6.49444 9.98313C6.17218 9.98202 5.9076 10.2448 5.90649 10.567L5.89571 13.692C5.8946 14.0143 6.15736 14.2789 6.47962 14.28Z" fill="black"/>
</svg>
