<svg width="19" height="24" viewBox="0 0 19 24" fill="none" xmlns="http://www.w3.org/2000/svg">
<path d="M18.7251 20.9733L15.755 16.1704C15.621 15.9537 15.4036 15.7958 15.1497 15.7294L14.5029 15.5601C15.9472 14.5129 17.0372 13.0056 17.5149 11.1805C18.6514 6.83898 15.8779 2.35408 11.3185 1.16057C6.75905 -0.0329353 2.14384 2.51784 1.00736 6.8594C-0.129123 11.201 2.64438 15.6859 7.20379 16.8794C9.12042 17.3811 11.0445 17.2226 12.7182 16.5464L12.557 17.1623C12.4937 17.4041 12.5326 17.6606 12.6666 17.8774L15.6368 22.6802C15.9168 23.133 16.52 23.2909 16.982 23.0323L18.3849 22.257C18.8509 21.9994 19.0012 21.4251 18.7251 20.9733ZM7.99508 13.8565C5.18959 13.1221 3.4816 10.3656 4.18189 7.69039C4.88118 5.01895 7.71773 3.44799 10.5272 4.18342C13.3327 4.91781 15.0407 7.67434 14.3404 10.3496C13.6411 13.021 10.8045 14.5919 7.99508 13.8565Z" fill="#0A5C03"/>
</svg>
