<svg width="25" height="25" viewBox="0 0 25 25" fill="none" xmlns="http://www.w3.org/2000/svg">
<path d="M10.7539 18.4825L10.7548 18.4834C11.443 19.1716 12.6094 18.6799 12.6094 17.7148V14.7578H17.7734C18.3718 14.7578 18.8594 14.2703 18.8594 13.6719V10.5469C18.8594 9.94847 18.3718 9.46094 17.7734 9.46094H12.6094V6.49902C12.6094 5.53676 11.4384 5.03896 10.7533 5.73201C10.753 5.73226 10.7528 5.73252 10.7525 5.73278L5.17379 11.3408C5.17361 11.341 5.17343 11.3411 5.17325 11.3413C4.74922 11.7659 4.74922 12.4479 5.17325 12.8725C5.17343 12.8727 5.17361 12.8729 5.17379 12.8731L10.7539 18.4825ZM12.1094 23.7188C5.69606 23.7188 0.5 18.5227 0.5 12.1094C0.5 5.69606 5.69606 0.5 12.1094 0.5C18.5227 0.5 23.7188 5.69606 23.7188 12.1094C23.7188 18.5227 18.5227 23.7188 12.1094 23.7188Z" fill="#04FF2F" stroke="black"/>
</svg>
